<?xml version="1.0" standalone="no"?>
<!DOCTYPE svg PUBLIC "-//W3C//DTD SVG 20010904//EN"
 "http://www.w3.org/TR/2001/REC-SVG-20010904/DTD/svg10.dtd">
<svg version="1.0" xmlns="http://www.w3.org/2000/svg"
 width="327.000000pt" height="327.000000pt" viewBox="0 0 327.000000 327.000000"
 preserveAspectRatio="xMidYMid meet">
<metadata>
Created by potrace 1.11, written by Peter Selinger 2001-2013
</metadata>
<g transform="translate(0.000000,327.000000) scale(0.100000,-0.100000)"
fill="#000000" stroke="none">
<path d="M681 3119 c-257 -50 -492 -238 -598 -477 -51 -115 -67 -212 -66 -397
2 -507 150 -784 663 -1243 63 -57 239 -212 390 -345 151 -133 340 -303 420
-378 l145 -136 100 90 c55 50 239 214 409 366 170 152 374 335 455 407 519
464 661 734 661 1254 0 171 -23 289 -79 404 -110 228 -310 388 -559 447 -119
29 -351 23 -457 -11 -182 -58 -368 -192 -498 -360 l-27 -35 -42 50 c-156 188
-337 309 -531 355 -88 21 -299 26 -386 9z m-163 -655 c26 -18 29 -59 7 -91
-14 -20 -14 -23 5 -33 13 -7 20 -21 20 -42 0 -17 10 -66 21 -108 33 -120 77
-153 148 -113 23 14 31 26 33 53 2 28 8 36 27 38 29 4 41 -12 41 -55 0 -22 6
-36 19 -43 12 -6 20 -20 19 -37 0 -16 9 -48 20 -73 l21 -45 0 42 c1 39 20 73
41 73 5 0 7 13 4 30 -8 37 9 60 37 53 18 -5 20 -12 16 -43 -4 -35 -4 -36 25
-32 25 4 34 14 64 77 19 39 34 76 34 81 0 5 9 27 20 49 11 22 20 50 20 62 0
23 26 57 49 64 9 3 9 12 0 37 -10 28 -9 36 6 52 36 40 78 17 88 -47 5 -32 13
-42 39 -54 30 -13 34 -19 41 -74 11 -79 14 -253 5 -268 -5 -7 -8 -3 -8 11 0
13 -4 20 -10 17 -5 -3 -10 -48 -10 -98 0 -51 -5 -108 -11 -127 -5 -19 -10 -65
-11 -102 -1 -59 -3 -68 -19 -68 -10 0 -23 8 -28 18 -9 15 -10 14 -11 -6 0 -19
-5 -23 -26 -20 -22 3 -27 8 -29 38 -1 19 -7 78 -14 130 -26 222 -29 268 -25
330 2 36 1 57 -3 48 -5 -9 -20 -26 -36 -38 -15 -12 -27 -30 -27 -40 0 -9 -6
-23 -14 -29 -8 -7 -17 -22 -20 -34 -3 -13 -19 -29 -38 -38 -32 -14 -33 -16
-33 -74 1 -33 5 -104 9 -157 7 -73 6 -98 -3 -98 -15 0 -28 33 -37 95 l-8 50
-10 -78 c-10 -71 -22 -96 -49 -97 -4 0 -4 38 -1 84 9 109 -1 175 -24 170 -12
-4 -22 7 -35 41 -22 54 -42 60 -33 11 4 -19 2 -65 -4 -103 -6 -37 -13 -94 -15
-125 -5 -82 -20 -100 -42 -53 -7 16 -8 27 -1 31 12 7 7 46 -17 129 -13 45 -15
78 -11 132 l7 73 -63 -1 c-35 0 -67 0 -73 1 -5 1 -13 2 -17 1 -5 0 -8 9 -8 21
0 13 -11 46 -24 74 -13 28 -27 66 -31 85 -8 34 -8 34 -17 9 -6 -16 -5 -33 3
-50 24 -50 59 -144 59 -157 0 -7 -11 -13 -25 -13 -20 0 -25 -6 -29 -32 -8 -52
-18 -187 -20 -258 -1 -52 -4 -65 -18 -68 -19 -4 -32 29 -23 57 5 15 2 18 -13
14 -28 -7 -34 9 -23 59 8 35 7 46 -6 61 -10 10 -20 47 -25 85 -4 37 -11 68
-15 70 -30 10 -31 19 -12 87 11 39 18 90 17 115 l-3 45 -13 -55 c-7 -30 -15
-66 -18 -80 -3 -14 -5 -38 -5 -55 0 -29 -1 -29 -15 -10 -10 14 -13 31 -8 55 3
19 10 62 15 95 17 115 21 130 44 155 12 14 27 39 34 56 16 41 47 74 69 74 10
0 28 -7 40 -16z m2048 2 c15 -11 19 -26 18 -65 0 -32 4 -51 11 -51 6 0 21 -10
33 -22 55 -60 86 -209 50 -245 -25 -25 -41 -6 -27 32 9 25 7 38 -11 78 -11 26
-25 47 -30 47 -10 0 -30 -87 -30 -131 0 -16 -4 -37 -9 -47 -5 -9 -28 -56 -51
-104 -23 -49 -46 -88 -51 -88 -4 0 -11 -10 -15 -22 -4 -13 -22 -42 -40 -66
-20 -26 -36 -61 -40 -87 -4 -32 -11 -45 -27 -49 -11 -3 -25 -3 -29 1 -14 8 2
84 23 107 11 11 19 27 20 35 3 39 -4 77 -17 95 -20 29 -17 94 7 146 12 25 21
59 20 77 0 18 6 51 14 74 8 23 15 51 15 63 0 22 0 22 -65 7 -44 -10 -65 -20
-65 -30 0 -24 -32 -51 -61 -51 -18 0 -35 9 -48 26 -26 33 -26 45 -3 71 13 16
35 23 95 28 60 6 87 14 120 35 23 15 60 31 82 34 l40 7 -3 41 c-3 32 0 45 14
55 23 17 35 16 60 -1z m-907 -1112 c23 -17 25 -43 6 -99 -5 -17 2 -26 32 -45
28 -19 39 -33 41 -55 5 -51 11 -61 25 -40 17 22 51 16 55 -11 2 -11 -6 -28
-18 -39 -11 -10 -20 -24 -20 -31 0 -8 -11 -21 -25 -30 -24 -16 -25 -20 -25
-130 0 -99 -2 -114 -16 -114 -13 0 -15 -7 -10 -31 3 -17 6 -62 6 -100 l0 -69
41 -21 c58 -29 39 -43 -43 -33 l-63 9 -7 128 c-3 71 -8 130 -10 132 -21 21
-56 -146 -42 -201 10 -41 -4 -73 -41 -91 -19 -9 -37 -14 -41 -10 -3 3 -1 29 5
57 20 91 26 221 11 230 -11 7 -11 22 2 87 l16 78 -30 53 c-25 45 -29 61 -24
95 14 104 41 146 94 150 15 1 19 6 15 22 -17 65 -15 93 8 109 29 20 29 20 58
0z"/>
<path d="M445 1977 c-3 -12 -2 -51 3 -87 l10 -65 1 88 c1 87 -4 107 -14 64z"/>
<path d="M1582 1185 c0 -16 2 -22 5 -12 2 9 2 23 0 30 -3 6 -5 -1 -5 -18z"/>
<path d="M1670 1161 c0 -22 -5 -42 -12 -44 -8 -3 -6 -6 5 -6 14 -1 17 8 17 44
0 25 -2 45 -5 45 -3 0 -5 -18 -5 -39z"/>
<path d="M1590 1125 c0 -8 4 -15 10 -15 5 0 7 7 4 15 -4 8 -8 15 -10 15 -2 0
-4 -7 -4 -15z"/>
<path d="M1742 1069 c-28 -26 -41 -47 -38 -56 8 -21 36 2 36 28 0 11 5 19 10
19 21 0 25 2 42 17 16 15 16 33 0 33 -4 0 -26 -19 -50 -41z"/>
<path d="M1668 1048 c-10 -10 -14 -18 -9 -18 10 0 36 29 30 34 -2 1 -12 -6
-21 -16z"/>
</g>
</svg>
